HIERARCHY
ROOT Hips
{
    OFFSET   0.000000   0.000000   0.000000
    CHANNELS 6 Xposition Yposition Zposition Zrotation Xrotation Yrotation
    JOINT Chest
    {
        OFFSET   0.000000   8.007230   0.000000
        CHANNELS 3 Zrotation Xrotation Yrotation
        JOINT Chest2
        {
            OFFSET   0.000000  22.077100   0.000000
            CHANNELS 3 Zrotation Xrotation Yrotation
            JOINT Neck
            {
                OFFSET   0.000000  23.254800  -0.000021
                CHANNELS 3 Zrotation Xrotation Yrotation
                JOINT Head
                {
                    OFFSET   0.000000  14.370000   1.956610
                    CHANNELS 3 Zrotation Xrotation Yrotation
                    End Site
                    {
                        OFFSET   0.000000  19.566000   0.000000
                    }
                }
            }
            JOINT LeftCollar
            {
                OFFSET   3.911900  19.017000  -0.467063
                CHANNELS 3 Zrotation Xrotation Yrotation
                JOINT LeftShoulder
                {
                    OFFSET  10.383700   0.000000   0.000000
                    CHANNELS 3 Zrotation Xrotation Yrotation
                    JOINT LeftElbow
                    {
                        OFFSET  26.662100   0.001529   0.000325
                        CHANNELS 3 Zrotation Xrotation Yrotation
                        JOINT LeftWrist
                        {
                            OFFSET  28.869000  -0.000011  -0.000096
                            CHANNELS 3 Zrotation Xrotation Yrotation
                            JOINT LeftFinger0
                            {
                                OFFSET   2.044650  -2.323460   3.252850
                                CHANNELS 3 Zrotation Xrotation Yrotation
                                JOINT LeftFinger01
                                {
                                    OFFSET   3.088130   0.000000   0.000000
                                    CHANNELS 3 Zrotation Xrotation Yrotation
                                    JOINT LeftFinger02
                                    {
                                        OFFSET   2.639460   0.000000   0.000000
                                        CHANNELS 3 Zrotation Xrotation Yrotation
                                        End Site
                                        {
                                            OFFSET   2.582190   0.000000   0.000000
                                        }
                                    }
                                }
                            }
                            JOINT LeftFinger1
                            {
                                OFFSET   8.364480   0.000000   3.252850
                                CHANNELS 3 Zrotation Xrotation Yrotation
                                JOINT LeftFinger11
                                {
                                    OFFSET   4.646930   0.000000   0.000000
                                    CHANNELS 3 Zrotation Xrotation Yrotation
                                    JOINT LeftFinger12
                                    {
                                        OFFSET   2.323460   0.000000   0.000000
                                        CHANNELS 3 Zrotation Xrotation Yrotation
                                        End Site
                                        {
                                            OFFSET   2.273050   0.000000   0.000000
                                        }
                                    }
                                }
                            }
                            JOINT LeftFinger2
                            {
                                OFFSET   8.364480   0.000016   1.078090
                                CHANNELS 3 Zrotation Xrotation Yrotation
                                JOINT LeftFinger21
                                {
                                    OFFSET   5.111620   0.000000   0.000000
                                    CHANNELS 3 Zrotation Xrotation Yrotation
                                    JOINT LeftFinger22
                                    {
                                        OFFSET   2.788160   0.000017   0.000000
                                        CHANNELS 3 Zrotation Xrotation Yrotation
                                        End Site
                                        {
                                            OFFSET   2.727660   0.000000   0.000000
                                        }
                                    }
                                }
                            }
                            JOINT LeftFinger3
                            {
                                OFFSET   7.899780   0.000015  -1.078090
                                CHANNELS 3 Zrotation Xrotation Yrotation
                                JOINT LeftFinger31
                                {
                                    OFFSET   4.646920   0.000000   0.000000
                                    CHANNELS 3 Zrotation Xrotation Yrotation
                                    JOINT LeftFinger32
                                    {
                                        OFFSET   2.323470   0.000000   0.000000
                                        CHANNELS 3 Zrotation Xrotation Yrotation
                                        End Site
                                        {
                                            OFFSET   2.273050   0.000000   0.000000
                                        }
                                    }
                                }
                            }
                            JOINT LeftFinger4
                            {
                                OFFSET   7.435090   0.000000  -3.252850
                                CHANNELS 3 Zrotation Xrotation Yrotation
                                JOINT LeftFinger41
                                {
                                    OFFSET   3.717550   0.000000   0.000000
                                    CHANNELS 3 Zrotation Xrotation Yrotation
                                    JOINT LeftFinger42
                                    {
                                        OFFSET   1.858760   0.000000   0.000000
                                        CHANNELS 3 Zrotation Xrotation Yrotation
                                        End Site
                                        {
                                            OFFSET   1.818440   0.000000   0.000000
                                        }
                                    }
                                }
                            }
                        }
                    }
                }
            }
            JOINT RightCollar
            {
                OFFSET  -3.911900  19.017000  -0.467062
                CHANNELS 3 Zrotation Xrotation Yrotation
                JOINT RightShoulder
                {
                    OFFSET -10.383700   0.000015   0.000000
                    CHANNELS 3 Zrotation Xrotation Yrotation
                    JOINT RightElbow
                    {
                        OFFSET -26.662100   0.001341   0.000385
                        CHANNELS 3 Zrotation Xrotation Yrotation
                        JOINT RightWrist
                        {
                            OFFSET -28.869000   0.000025  -0.000080
                            CHANNELS 3 Zrotation Xrotation Yrotation
                            JOINT RightFinger0
                            {
                                OFFSET  -2.044650  -2.323490   3.252850
                                CHANNELS 3 Zrotation Xrotation Yrotation
                                JOINT RightFinger01
                                {
                                    OFFSET  -3.088130   0.000000   0.000000
                                    CHANNELS 3 Zrotation Xrotation Yrotation
                                    JOINT RightFinger02
                                    {
                                        OFFSET  -2.639460   0.000000   0.000000
                                        CHANNELS 3 Zrotation Xrotation Yrotation
                                        End Site
                                        {
                                            OFFSET  -2.582190   0.000000   0.000000
                                        }
                                    }
                                }
                            }
                            JOINT RightFinger1
                            {
                                OFFSET  -8.364480   0.000000   3.252850
                                CHANNELS 3 Zrotation Xrotation Yrotation
                                JOINT RightFinger11
                                {
                                    OFFSET  -4.646930   0.000000   0.000000
                                    CHANNELS 3 Zrotation Xrotation Yrotation
                                    JOINT RightFinger12
                                    {
                                        OFFSET  -2.323470   0.000000   0.000000
                                        CHANNELS 3 Zrotation Xrotation Yrotation
                                        End Site
                                        {
                                            OFFSET  -2.273050   0.000000   0.000000
                                        }
                                    }
                                }
                            }
                            JOINT RightFinger2
                            {
                                OFFSET  -8.364480   0.000000   1.078090
                                CHANNELS 3 Zrotation Xrotation Yrotation
                                JOINT RightFinger21
                                {
                                    OFFSET  -5.111610   0.000000   0.000000
                                    CHANNELS 3 Zrotation Xrotation Yrotation
                                    JOINT RightFinger22
                                    {
                                        OFFSET  -2.788160   0.000000   0.000000
                                        CHANNELS 3 Zrotation Xrotation Yrotation
                                        End Site
                                        {
                                            OFFSET  -2.727660   0.000000   0.000000
                                        }
                                    }
                                }
                            }
                            JOINT RightFinger3
                            {
                                OFFSET  -7.899780   0.000000  -1.078090
                                CHANNELS 3 Zrotation Xrotation Yrotation
                                JOINT RightFinger31
                                {
                                    OFFSET  -4.646920   0.000000   0.000000
                                    CHANNELS 3 Zrotation Xrotation Yrotation
                                    JOINT RightFinger32
                                    {
                                        OFFSET  -2.323470   0.000000   0.000000
                                        CHANNELS 3 Zrotation Xrotation Yrotation
                                        End Site
                                        {
                                            OFFSET  -2.273050   0.000000   0.000000
                                        }
                                    }
                                }
                            }
                            JOINT RightFinger4
                            {
                                OFFSET  -7.435090   0.000000  -3.252850
                                CHANNELS 3 Zrotation Xrotation Yrotation
                                JOINT RightFinger41
                                {
                                    OFFSET  -3.717550   0.000000   0.000000
                                    CHANNELS 3 Zrotation Xrotation Yrotation
                                    JOINT RightFinger42
                                    {
                                        OFFSET  -1.858770   0.000000   0.000000
                                        CHANNELS 3 Zrotation Xrotation Yrotation
                                        End Site
                                        {
                                            OFFSET  -1.818440   0.000000   0.000000
                                        }
                                    }
                                }
                            }
                        }
                    }
                }
            }
        }
    }
    JOINT LeftHip
    {
        OFFSET   9.783010   0.000000   0.000000
        CHANNELS 3 Zrotation Xrotation Yrotation
        JOINT LeftKnee
        {
            OFFSET   0.000070 -41.789100   0.000028
            CHANNELS 3 Zrotation Xrotation Yrotation
            JOINT LeftAnkle
            {
                OFFSET   0.000087 -41.133200  -0.000100
                CHANNELS 3 Zrotation Xrotation Yrotation
                JOINT LeftToe
                {
                    OFFSET   0.000000  -6.358960  14.674500
                    CHANNELS 3 Zrotation Xrotation Yrotation
                    End Site
                    {
                        OFFSET   0.000000   0.000000   3.913200
                    }
                }
            }
        }
    }
    JOINT RightHip
    {
        OFFSET  -9.783020   0.000000   0.000000
        CHANNELS 3 Zrotation Xrotation Yrotation
        JOINT RightKnee
        {
            OFFSET   0.000044 -41.789100  -0.000870
            CHANNELS 3 Zrotation Xrotation Yrotation
            JOINT RightAnkle
            {
                OFFSET  -0.000090 -41.133200  -0.000245
                CHANNELS 3 Zrotation Xrotation Yrotation
                JOINT RightToe
                {
                    OFFSET   0.000000  -6.358960  14.674500
                    CHANNELS 3 Zrotation Xrotation Yrotation
                    End Site
                    {
                        OFFSET   0.000000   0.000000   3.913200
                    }
                }
            }
        }
    }
}
MOTION
Frames: 4
Frame Time:   0.016667
  0.270398  89.568900  -3.940120  -0.793497  -3.784190   1.083730   0.425959   4.084400   0.141996   0.844976   8.169760   0.254432  -1.311640  -0.064010  -0.008082  -2.164110  -0.123259   5.849250  -6.692190   1.314090   8.400760 -76.852300   4.015860   2.063820   0.100454   2.377060 -21.980000   7.787320  -9.947300   0.332505  42.187300  36.714300 -53.691400 -32.171500   0.001372   0.000912 -11.085800  -0.005891  -0.002505 -48.755400  -2.381470   2.084930 -39.926100   0.002223  -0.001496 -29.803100  -0.008189  -0.001553 -47.108000  -3.552740   3.292320 -54.419700  -0.004019  -0.000209 -39.189400   0.000140  -0.000278 -34.684000  -5.241520   7.525400 -52.543400   0.001429   0.004659 -34.993900  -0.008420   0.000000 -46.507500  -8.906420   8.355980 -70.739200   0.000468  -0.000960 -47.112300   0.000700   0.004857   8.563760   4.975520   7.546280  69.473600  -1.705080  -3.000650   2.830430  -0.297245  22.937000 -18.760500  -2.675080  -2.385670 -46.944900  43.498900  83.060000  28.169700   0.008001  -0.010641   9.084840  -0.001547  -0.011881  47.222200  -2.192800  -2.027620  38.668100   0.000835  -0.002283  28.563800   0.001537  -0.001298  43.030400  -2.034380  -2.177720  54.438700  -0.004633  -0.002426  38.162500  -0.000216  -0.000982  44.245100  -2.080110  -2.134210  54.450300  -0.003173  -0.005343  38.482600  -0.000708  -0.001179  52.412000  -5.495820  -4.222370  78.922700   0.003838  -0.001459  52.562500  -0.000411  -0.000950   1.766550   4.630290  -0.744585  -0.151902   0.532845   9.603940  -1.704660  -1.926050  -2.622240   0.000000   0.000000  -0.000000  -0.356474   4.105070  -2.753380   0.597930   3.112720 -17.105400   1.268980  -3.250510  -1.270860  -0.000000   0.000000   0.000000
  0.290341  89.568800  -3.940190  -0.795281  -3.815000   1.070070   0.426144   4.092840   0.125313   0.846541   8.186500   0.220864  -1.311790  -0.063629  -0.008020  -2.164170  -0.123094   5.846090  -6.698460   1.310420   8.400840 -76.868700   4.051560   2.054330   0.094901   2.338500 -21.914600   7.795830  -9.957370   0.357051  42.167500  36.674000 -53.687600 -32.155000   0.001409   0.000936 -11.077600  -0.005984  -0.002539 -48.755400  -2.381460   2.084920 -39.926100   0.002197  -0.001530 -29.803100  -0.008339  -0.001592 -47.087300  -3.552740   3.294220 -54.419700  -0.004075  -0.000221 -39.184700   0.000150  -0.000303 -34.672400  -5.241490   7.527410 -52.526000   0.001421   0.004592 -34.982400  -0.008458  -0.000024 -46.480500  -8.904260   8.361190 -70.699000   0.000478  -0.001013 -47.085500   0.000730   0.004853   8.564740   4.972580   7.539600  69.495200  -1.689660  -2.986200   2.862340  -0.337004  22.952500 -18.757300  -2.628170  -2.321690 -46.814100  43.413400  82.946200  28.211700   0.008025  -0.010596   9.105850  -0.001521  -0.011884  47.234900  -2.204360  -2.037270  38.678600   0.000858  -0.002418  28.574100   0.001422  -0.001400  43.073500  -2.083130  -2.226610  54.438600  -0.004663  -0.002481  38.174400  -0.000269  -0.001046  44.348900  -2.131710  -2.180360  54.450300  -0.003251  -0.005459  38.509400  -0.000792  -0.001257  52.431200  -5.503530  -4.222430  78.951500   0.003852  -0.001584  52.581700  -0.000506  -0.000960   1.758760   4.671790  -0.743340  -0.159879   0.518971   9.612190  -1.691460  -1.925970  -2.622260   0.000000   0.000000   0.000000  -0.368096   4.073860  -2.744330   0.591048   3.191800 -17.106600   1.269230  -3.250240  -1.266010   0.000000   0.000000   0.000000
  0.321850  89.568600  -3.940320  -0.799415  -3.866870   1.042260   0.426450   4.108150   0.100387   0.848952   8.216910   0.170684  -1.312030  -0.063248  -0.007899  -2.164420  -0.122931   5.832400  -6.707200   1.302480   8.400900 -76.894800   4.122870   2.031990   0.082543   2.274740 -21.792500   7.809440  -9.967420   0.393496  42.152600  36.628300 -53.692100 -32.138500   0.001467   0.000974 -11.069300  -0.006162  -0.002607 -48.755100  -2.381440   2.084880 -39.925900   0.002147  -0.001587 -29.802900  -0.008639  -0.001656 -47.046900  -3.552720   3.298420 -54.419700  -0.004188  -0.000242 -39.175600   0.000167  -0.000346 -34.653900  -5.241450   7.530180 -52.498500   0.001407   0.004460 -34.964000  -0.008534  -0.000064 -46.437100  -8.895690   8.366250 -70.633500   0.000496  -0.001103 -47.041900   0.000782   0.004845   8.567610   4.957730   7.529570  69.548400  -1.657840  -2.971730   2.944780  -0.465498  23.012500 -18.760000  -2.524440  -2.212760 -46.663100  43.321300  82.785800  28.268700   0.008074  -0.010511   9.134370  -0.001456  -0.011898  47.247000  -2.222860  -2.053790  38.689000   0.000895  -0.002643  28.584300   0.001207  -0.001569  43.115300  -2.146240  -2.290750  54.438500  -0.004723  -0.002572  38.186400  -0.000356  -0.001152  44.473500  -2.200220  -2.239190  54.450200  -0.003407  -0.005650  38.542000  -0.000931  -0.001389  52.450300  -5.511230  -4.222480  78.980300   0.003878  -0.001794  52.600900  -0.000665  -0.000978   1.746560   4.743200  -0.740305  -0.173730   0.493122   9.629890  -1.668480  -1.925450  -2.622280  -0.000000   0.000000  -0.000000  -0.381033   4.024820  -2.728510   0.576853   3.320150 -17.108200   1.269350  -3.249980  -1.261170   0.000000   0.000000  -0.000000
  0.343397  89.568400  -3.940480  -0.805136  -3.907910   1.010820   0.426734   4.121060   0.084096   0.850714   8.242650   0.137812  -1.312270  -0.063749  -0.007747  -2.164540  -0.124582   5.804780  -6.708990   1.294570   8.400670 -76.912900   4.205830   2.000930   0.065532   2.228060 -21.664100   7.818320  -9.926890   0.411054  42.156700  36.624200 -53.706300 -32.138700   0.001516   0.001002 -11.069400  -0.006374  -0.002693 -48.738900  -2.381400   2.084830 -39.912600   0.002084  -0.001647 -29.789700  -0.009038  -0.001719 -46.997900  -3.552700   3.304580 -54.419600  -0.004340  -0.000259 -39.164500   0.000185  -0.000389 -34.638900  -5.241430   7.531120 -52.476000   0.001391   0.004289 -34.949000  -0.008632  -0.000101 -46.406300  -8.872290   8.356260 -70.583600   0.000516  -0.001197 -47.008600   0.000834   0.004838   8.579170   4.932830   7.525330  69.628700  -1.617260  -2.983640   3.074270  -0.713210  23.102100 -18.795700  -2.413040  -2.133040 -46.720700  43.320200  82.724700  28.286900   0.008133  -0.010410   9.143450  -0.001353  -0.011928  47.207900  -2.239030  -2.071650  38.654900   0.000933  -0.002870  28.553600   0.000925  -0.001738  43.093400  -2.163000  -2.308520  54.438500  -0.004802  -0.002665  38.181000  -0.000442  -0.001257  44.486900  -2.219950  -2.253970  54.450200  -0.003610  -0.005842  38.545900  -0.001068  -0.001521  52.414200  -5.496450  -4.216610  78.924900   0.003913  -0.002004  52.564000  -0.000823  -0.000995   1.738310   4.804530  -0.735363  -0.185790   0.464354   9.652010  -1.647320  -1.920240  -2.619720  -0.000000   0.000000   0.000000  -0.381497   3.984720  -2.710520   0.558981   3.422290 -17.099000   1.264340  -3.250040  -1.268430  -0.000000   0.000000  -0.000000
